<svg width="1500" height="889" viewBox="0 0 1500 889" fill="none" xmlns="http://www.w3.org/2000/svg">
<path d="M626.082 454.5C631.185 458.872 636.134 463.367 641 468C641.792 468.727 642.583 469.454 643.399 470.203C658.483 484.493 672.167 506.809 673 528C673.075 529.172 673.15 530.344 673.227 531.551C674.004 548.47 668.355 564.307 657 577C650.963 583.457 644.15 588.834 637 594C636.386 594.446 635.772 594.893 635.139 595.353C614.759 610 614.759 610 605 610C605.161 610.843 605.322 611.686 605.488 612.555C608.785 634.747 601.723 655.555 589.164 673.645C574.79 692.416 554.957 707.497 532 714C531.027 714.296 530.054 714.593 529.051 714.898C520.062 717.174 511.172 717.314 501.938 717.375C500.057 717.396 500.057 717.396 498.138 717.417C471.75 717.286 450.451 705.372 432.125 687.191C396.822 650.234 383.179 597.068 371 549C372.536 566.132 374.926 583.157 378.75 599.938C379.743 604.352 380.226 608.31 380.039 612.824C379.966 616.905 380.527 620.952 381 625C381.66 625 382.32 625 383 625C383.205 626.06 383.41 627.119 383.621 628.211C383.893 629.599 384.165 630.987 384.438 632.375C384.572 633.074 384.707 633.772 384.846 634.492C385.577 638.356 385.577 638.356 387 642C386.67 642.66 386.34 643.32 386 644C386.474 644.454 386.949 644.907 387.438 645.375C389.745 647.775 389.995 648.725 390.063 652.125C390.042 653.074 390.021 654.022 390 655C390.66 655.33 391.32 655.66 392 656C392.379 657.996 392.379 657.996 392.563 660.438C392.806 663.846 392.806 663.846 394 667C393.34 667 392.68 667 392 667C392.33 667.66 392.66 668.32 393 669C393.99 669 394.98 669 396 669C398.756 671.756 399.971 673.741 400.063 677.688C400.042 678.451 400.021 679.214 400 680C400.33 680.33 400.66 680.66 401 681C401.141 683.671 401.043 686.324 401 689C401.99 689 402.98 689 404 689C405.125 692.75 405.125 692.75 404 695C404.623 695.24 405.245 695.48 405.887 695.727C408.559 697.337 408.851 698.447 409.813 701.375C411.76 706.816 414.604 711.346 417.805 716.141C419 719 419 719 418.195 722.359C417.801 723.231 417.407 724.102 417 725C417.784 725.144 418.568 725.289 419.375 725.438C422 726 422 726 424 727C423.67 727.99 423.34 728.98 423 730C422.01 730.33 421.02 730.66 420 731C419.34 730.01 418.68 729.02 418 728C418 728.66 418 729.32 418 730C415.543 731.547 414.368 732.045 411.438 731.688C409.611 731.172 407.801 730.6 406 730C405.01 730.33 404.02 730.66 403 731C402.735 730.446 402.469 729.891 402.195 729.32C401.842 728.596 401.489 727.871 401.125 727.125C400.777 726.406 400.429 725.686 400.07 724.945C399.035 722.849 399.035 722.849 397 721C396.254 719.266 396.254 719.266 395.563 717.25C394.638 714.644 393.681 712.398 392.375 709.938C390.556 706.052 390 702.278 390 698C389.34 698 388.68 698 388 698C386 692.375 386 692.375 386 689C385.34 688.67 384.68 688.34 384 688C383.184 686.074 383.184 686.074 382.438 683.688C382.189 682.908 381.94 682.128 381.684 681.324C381.066 679.225 380.524 677.124 380 675C379.502 673.208 379.002 671.416 378.5 669.625C377.639 666.514 376.933 663.57 376.438 660.375C376.293 659.591 376.149 658.808 376 658C375.34 657.67 374.68 657.34 374 657C374.184 656.428 374.369 655.855 374.559 655.266C375.056 652.712 374.766 651.234 374.063 648.75C373.712 647.513 373.361 646.275 373 645C373.66 645 374.32 645 375 645C374.649 644.216 374.299 643.433 373.938 642.625C373.628 641.759 373.319 640.892 373 640C373.495 639.01 373.495 639.01 374 638C373.34 637.67 372.68 637.34 372 637C371.593 634.678 371.256 632.343 371 630C370.01 629.67 369.02 629.34 368 629C362.273 591.468 359.626 553.998 359.739 516.063C359.751 512.141 359.744 508.22 359.732 504.298C359.725 501.222 359.727 498.146 359.732 495.071C359.734 493.622 359.732 492.174 359.728 490.726C359.722 488.721 359.732 486.717 359.741 484.713C359.743 483.581 359.745 482.45 359.746 481.284C360.033 477.577 360.871 474.534 362 471C371.732 473.163 380.32 477.032 389.141 481.633C392.042 483.02 394.932 484.047 398 485C398 485.66 398 486.32 398 487C398.583 487.135 399.165 487.271 399.766 487.41C406.256 489.114 411.44 491.859 417.149 495.348C420.679 497.393 424.131 498.735 428 500C428 500.66 428 501.32 428 502C428.578 502.144 429.155 502.289 429.75 502.437C431.833 502.958 433.917 503.479 436 504C436 504.66 436 505.32 436 506C436.818 506.238 436.818 506.238 437.652 506.48C438.407 506.714 439.161 506.947 439.938 507.187C441.034 507.518 441.034 507.518 442.152 507.855C445.446 509.179 448.424 510.839 451.509 512.589C454.057 514.032 456.624 515.436 459.199 516.832C485.866 531.311 485.866 531.311 494.625 536.937C497.395 538.63 498.958 539.369 502 540C502 540.66 502 541.32 502 542C502.708 542.259 503.416 542.518 504.145 542.785C507.212 544.09 509.865 545.663 512.688 547.437C513.846 548.162 515.005 548.886 516.164 549.609C517.093 550.19 517.093 550.19 518.04 550.783C520.068 552.042 522.106 553.281 524.149 554.516C535.592 561.437 546.824 568.656 558 576C552.736 572.007 547.4 568.189 541.906 564.516C540.963 563.765 540.963 563.765 540 563C540 562.34 540 561.68 540 561C539.175 560.774 538.35 560.549 537.5 560.316C533.231 558.711 529.775 556.465 526 553.938C524.485 552.94 522.969 551.943 521.453 550.945C520.327 550.199 520.327 550.199 519.178 549.438C516.05 547.373 512.903 545.339 509.75 543.312C509.192 542.952 508.635 542.592 508.06 542.22C505.147 540.345 502.214 538.515 499.242 536.734C498.635 536.369 498.029 536.004 497.403 535.628C495.723 534.621 494.038 533.625 492.352 532.629C491.576 532.091 490.8 531.554 490 531C490 530.34 490 529.68 490 529C489.455 528.853 488.91 528.706 488.348 528.555C483.186 527.019 479.258 524.992 474.883 521.895C468.194 517.498 461.025 513.829 454 510C454 509.34 454 508.68 454 508C453.278 507.897 452.556 507.794 451.813 507.687C448.705 506.928 446.72 505.671 444 504C442.168 503.014 440.327 502.042 438.481 501.082C437.459 500.55 436.437 500.019 435.385 499.471C434.33 498.923 433.275 498.376 432.188 497.812C431.113 497.254 430.039 496.695 428.932 496.119C426.289 494.745 423.645 493.372 421 492C421 491.34 421 490.68 421 490C419.989 489.863 419.989 489.863 418.957 489.723C415.245 488.815 412.057 487.186 408.688 485.437C407.272 484.716 405.857 483.995 404.442 483.273C403.715 482.901 402.988 482.528 402.239 482.144C398.547 480.258 394.835 478.412 391.125 476.562C389.794 475.897 388.464 475.232 387.133 474.566C386.099 474.049 385.065 473.533 384 473C383.34 472.67 382.68 472.34 382 472C382 471.34 382 470.68 382 470C381.157 469.816 381.157 469.816 380.297 469.629C377.81 468.948 375.595 468.006 373.25 466.937C372.451 466.575 371.652 466.213 370.828 465.84C370.225 465.563 369.622 465.286 369 465C369.33 464.01 369.66 463.02 370 462C372.168 461.078 372.168 461.078 375.188 460.25C376.377 459.908 377.567 459.567 378.793 459.215C379.464 459.024 380.135 458.833 380.826 458.636C384.909 457.441 388.95 456.115 393 454.812C394.931 454.198 396.862 453.585 398.793 452.973C401.921 451.98 405.047 450.985 408.171 449.98C479.835 426.945 561.187 402.114 626.082 454.5Z" fill="#647F63"/>
<path d="M209 380C210.135 380.329 210.135 380.329 211.293 380.665C240.18 389.077 266.533 404.147 292.261 419.382C294.711 420.829 297.167 422.264 299.629 423.691C314.471 432.311 328.966 441.467 343.127 451.168C347.209 453.948 347.209 453.948 351.695 455.961C355.147 457.517 356.722 460.006 359 463C358.122 463.175 357.244 463.351 356.339 463.532C338.435 467.123 320.634 470.937 302.902 475.313C296.141 476.98 289.355 478.526 282.562 480.063C271.922 482.489 261.41 485.258 250.901 488.198C247.744 489.071 244.58 489.917 241.414 490.758C240.285 491.058 239.156 491.359 237.992 491.668C235.839 492.24 233.686 492.81 231.531 493.377C215.708 497.597 200.237 502.888 184.75 508.188C183.792 508.515 182.834 508.842 181.847 509.179C169.709 513.326 157.584 517.51 145.5 521.813C144.369 522.214 143.238 522.616 142.073 523.03C141.049 523.398 140.024 523.766 138.969 524.145C138.097 524.458 137.225 524.771 136.326 525.093C134.139 525.946 132.078 526.913 130 528C130.93 527.668 131.861 527.336 132.82 526.994C167.892 514.488 167.892 514.488 183 510C184.574 509.528 184.574 509.528 186.181 509.046C219.797 499.001 253.675 490.261 288 483C288.721 482.847 289.441 482.694 290.184 482.536C300.068 480.439 309.963 478.4 319.872 476.424C321.313 476.137 322.754 475.849 324.194 475.56C328.578 474.681 332.965 473.815 337.355 472.967C338.718 472.702 340.08 472.434 341.442 472.163C349.388 470.585 356.893 469.614 365 470C365.33 470.66 365.66 471.32 366 472C364.68 471.67 363.36 471.34 362 471C360.78 477.767 360.777 484.51 360.684 491.371C360.652 493.287 360.652 493.287 360.621 495.242C360.566 498.617 360.516 501.992 360.468 505.367C360.417 508.82 360.362 512.272 360.307 515.725C360.2 522.483 360.098 529.242 360 536C359.67 536 359.34 536 359 536C358.67 519.83 358.34 503.66 358 487C355.69 493.93 353.38 500.86 351 508C349.614 511.578 348.239 515.067 346.687 518.563C346.315 519.415 345.942 520.267 345.558 521.146C320.088 578.678 280.927 644.648 221 671C197.327 679.566 170.667 678.286 147.764 667.913C120.876 655.01 101.602 633.305 90.6836 605.668C87.2249 595.726 85.6293 586.207 85.6875 575.688C85.6916 574.18 85.6916 574.18 85.6958 572.641C85.8145 564.179 86.6488 556.223 90.164 548.414C91.1113 545.679 91.1986 544.616 90 542C88.4024 540.484 88.4024 540.484 86.3125 539.125C67.2546 524.885 49.192 502.791 44.4179 479.113C41.9596 460.802 46.3041 443.158 57.0898 428.078C59.0066 425.665 60.9808 423.327 63 421C63.9919 419.732 63.9919 419.732 65.0039 418.438C66.8074 416.235 68.5989 414.416 70.75 412.563C71.3636 412.028 71.9772 411.493 72.6094 410.941C86.1074 399.98 100.833 391.359 117 385C118.089 384.551 119.178 384.103 120.301 383.641C123.827 382.272 127.377 381.081 131 380C131.765 379.77 132.53 379.54 133.318 379.303C157.886 372.244 184.599 372.503 209 380Z" fill="#7D9D55"/>
<path d="M364 177C366.423 178.926 368.71 180.914 371 183C374.079 181.493 377.069 179.858 380.062 178.188C401.804 166.397 424.862 163.119 449.018 169.735C466.68 175.028 482.151 183.787 496 196C496.916 196.791 496.916 196.791 497.852 197.598C514.786 213.288 526.285 236.805 527.336 259.836C528.158 291.636 516.523 320.393 498 346C497.355 346.898 497.355 346.898 496.697 347.814C489.327 358.02 481.423 367.649 473 377C472.504 377.554 472.009 378.107 471.498 378.677C463.645 387.402 455.383 395.739 447.111 404.064C445.929 405.254 444.748 406.446 443.569 407.639C437.212 414.065 430.815 420.212 423.719 425.834C420.838 428.129 418.056 430.52 415.262 432.918C409.064 438.089 402.513 442.595 395.772 447.025C393.799 448.322 391.834 449.63 389.869 450.939C371.705 463 371.705 463 368 463C367.094 456.104 366.878 449.388 366.937 442.438C366.942 441.429 366.946 440.42 366.951 439.381C366.963 436.921 366.979 434.46 367 432C366.34 432 365.68 432 365 432C362.424 403.279 362.728 374.522 362.804 345.712C362.815 340.459 362.815 335.206 362.814 329.953C362.814 324.877 362.82 319.801 362.827 314.725C362.83 312.309 362.832 309.893 362.833 307.478C362.835 304.129 362.844 300.781 362.855 297.433C362.854 296.445 362.854 295.456 362.853 294.438C362.858 293.526 362.862 292.615 362.866 291.676C362.868 290.889 362.87 290.102 362.871 289.291C363.012 286.785 363.489 284.455 364 282C364.134 279.602 364.223 277.202 364.281 274.801C364.309 273.786 364.309 273.786 364.337 272.752C364.415 269.875 364.484 266.998 364.552 264.121C364.604 262.014 364.661 259.907 364.719 257.801C364.749 256.544 364.779 255.288 364.811 253.993C365 251 365 251 366 249C366.145 247.674 366.236 246.342 366.297 245.009C366.337 244.189 366.377 243.368 366.418 242.522C366.457 241.636 366.495 240.749 366.535 239.836C366.578 238.929 366.621 238.022 366.665 237.087C366.802 234.183 366.932 231.279 367.062 228.375C367.154 226.409 367.246 224.443 367.338 222.477C367.563 217.651 367.783 212.826 368 208C367.34 208 366.68 208 366 208C365.963 208.839 365.925 209.678 365.887 210.543C365.466 218.234 364.661 225.76 363.5 233.375C362.362 240.839 361.588 248.214 361.291 255.759C361.169 258.75 360.954 261.138 360 264C359.857 265.65 359.765 267.304 359.703 268.959C359.663 269.989 359.623 271.019 359.582 272.08C359.543 273.216 359.505 274.353 359.465 275.523C359.422 276.731 359.379 277.938 359.334 279.183C359.194 283.246 359.064 287.311 358.937 291.375C358.904 292.425 358.904 292.425 358.87 293.497C358.057 319.226 357.806 344.947 357.812 370.689C357.812 373.396 357.811 376.103 357.81 378.81C357.806 398.132 357.975 417.434 358.654 436.746C358.945 445.171 359.057 453.57 359 462C354.206 458.563 349.884 455.028 345.781 450.785C343.926 448.926 341.992 447.212 340 445.5C336.802 442.745 333.824 439.851 330.871 436.838C329.088 435.086 327.25 433.461 325.348 431.84C320.677 427.776 316.304 423.448 311.934 419.066C311.096 418.23 310.258 417.393 309.395 416.531C307.635 414.771 305.876 413.011 304.118 411.249C301.445 408.57 298.767 405.897 296.088 403.225C294.369 401.506 292.651 399.786 290.934 398.066C290.142 397.277 289.35 396.487 288.534 395.673C284.34 391.462 280.303 387.172 276.432 382.663C274.635 380.576 272.754 378.575 270.875 376.563C252.358 355.995 236.715 332.374 228 306C227.773 305.322 227.545 304.644 227.311 303.945C223.625 292.274 223.638 280.37 223.625 268.25C223.623 267.461 223.621 266.672 223.619 265.859C223.623 251.607 224.804 237.849 228.687 224.063C228.949 223.127 229.21 222.192 229.479 221.228C236.622 196.537 249.377 174.522 272.047 161.211C302.941 144.964 337.281 157.96 364 177Z" fill="#4A684C"/>
<path d="M1265 300C1324.73 300 1384.46 300 1446 300C1446 313.86 1446 327.72 1446 342C1402.44 342 1358.88 342 1314 342C1314 364.11 1314 386.22 1314 409C1355.58 409 1397.16 409 1440 409C1440 423.52 1440 438.04 1440 453C1398.09 453 1356.18 453 1313 453C1313 475.77 1313 498.54 1313 522C1357.88 522 1402.76 522 1449 522C1449 536.19 1449 550.38 1449 565C1388.28 565 1327.56 565 1265 565C1265 477.55 1265 390.1 1265 300Z" fill="#060709"/>
<path d="M834.132 299.88C835.541 299.883 835.541 299.883 836.979 299.886C838.04 299.887 839.101 299.887 840.194 299.887C841.348 299.892 842.502 299.897 843.691 299.902C844.866 299.904 846.041 299.905 847.252 299.907C851.022 299.912 854.792 299.925 858.562 299.938C861.111 299.943 863.66 299.947 866.209 299.951C872.473 299.962 878.736 299.979 885 300C889.419 308.574 893.359 317.263 897.117 326.142C898.43 329.242 899.751 332.339 901.071 335.435C901.747 337.022 902.423 338.609 903.099 340.197C906.101 347.247 909.137 354.283 912.188 361.313C912.956 363.083 912.956 363.083 913.739 364.89C917.894 374.464 922.059 384.034 926.221 393.605C926.647 394.583 927.072 395.562 927.511 396.57C928.381 398.571 929.251 400.571 930.121 402.571C936.014 416.121 941.893 429.676 947.753 443.24C954.049 457.812 960.367 472.376 966.688 486.938C967.689 489.244 968.69 491.551 969.691 493.858C971.141 497.198 972.591 500.538 974.04 503.878C985.783 530.93 985.783 530.93 991 543C991.461 544.067 991.923 545.134 992.398 546.233C993.705 549.258 995.009 552.285 996.312 555.313C996.693 556.192 997.073 557.072 997.464 557.979C1000 563.884 1000 563.884 1000 565C982.51 565 965.02 565 947 565C941.379 553.757 941.379 553.757 939.344 548.77C938.655 547.092 938.655 547.092 937.952 545.38C937.473 544.203 936.994 543.026 936.5 541.813C935.455 539.26 934.407 536.708 933.359 534.156C933.09 533.499 932.821 532.842 932.543 532.165C930.5 527.192 928.421 522.234 926.328 517.281C926.028 516.57 925.727 515.858 925.418 515.125C924.238 512.33 923.058 509.536 921.871 506.745C921.051 504.817 920.236 502.887 919.422 500.957C918.954 499.853 918.485 498.75 918.003 497.613C917 495 917 495 917 493C887.96 493 858.92 493 829 493C829.87 488.652 831.017 485.084 832.617 480.977C833.004 479.98 833.004 479.98 833.398 478.963C833.943 477.562 834.489 476.162 835.038 474.763C835.869 472.64 836.695 470.516 837.52 468.391C838.052 467.023 838.584 465.656 839.117 464.289C839.361 463.663 839.605 463.037 839.856 462.391C841.492 458.22 843.233 454.123 845 450C862.49 450 879.98 450 898 450C889.891 430.26 881.744 410.54 873.466 390.871C871.412 385.987 869.371 381.098 867.332 376.207C866.43 374.046 865.528 371.885 864.626 369.724C864.045 368.333 863.466 366.941 862.887 365.548C862.088 363.628 861.287 361.708 860.484 359.789C860.028 358.693 859.571 357.597 859.101 356.467C858.222 354.103 858.222 354.103 857 353C850.019 369.304 843.402 385.756 836.754 402.197C834.014 408.97 831.26 415.736 828.5 422.5C825.556 429.718 822.618 436.939 819.691 444.164C819.4 444.882 819.11 445.601 818.81 446.341C818.204 447.837 817.598 449.332 816.993 450.828C809.842 468.485 802.649 486.125 795.442 503.76C791.444 513.545 787.454 523.334 783.496 533.137C783.147 534.001 782.798 534.865 782.438 535.756C780.815 539.772 779.195 543.789 777.58 547.809C777.011 549.22 776.441 550.632 775.871 552.043C775.386 553.25 774.9 554.457 774.4 555.7C773.061 558.857 771.534 561.933 770 565C753.5 565 737 565 720 565C720.689 561.554 721.221 559.148 722.54 556.047C722.857 555.297 723.173 554.546 723.499 553.773C723.846 552.963 724.193 552.154 724.551 551.32C724.917 550.456 725.283 549.592 725.66 548.702C726.873 545.841 728.093 542.983 729.312 540.125C730.166 538.116 731.019 536.107 731.871 534.098C734.12 528.803 736.374 523.509 738.629 518.217C740.864 512.973 743.094 507.726 745.324 502.48C748.316 495.445 751.31 488.41 754.306 481.376C759.486 469.214 764.646 457.045 769.788 444.868C771.047 441.889 772.31 438.911 773.574 435.934C777.686 426.241 781.781 416.542 785.816 406.816C786.312 405.623 786.312 405.623 786.817 404.406C788.448 400.479 790.075 396.551 791.698 392.622C794.831 385.057 798.08 377.58 801.55 370.162C803.879 365.084 806.014 359.927 808.153 354.766C809.537 351.43 810.931 348.098 812.324 344.766C812.763 343.717 812.763 343.717 813.21 342.647C816.518 334.747 819.871 326.865 823.239 318.99C823.912 317.415 824.585 315.84 825.256 314.264C826.194 312.063 827.136 309.863 828.078 307.664C828.36 307.002 828.641 306.34 828.932 305.658C831.349 300.037 831.349 300.037 834.132 299.88Z" fill="#07080A"/>
<path d="M1210.93 307.949C1214.27 309.17 1214.27 309.17 1219 310C1219 325.18 1219 340.36 1219 356C1212.56 353.525 1212.56 353.525 1206 351C1203.06 350.065 1200.16 349.174 1197.19 348.375C1196.44 348.17 1195.68 347.964 1194.91 347.753C1159.06 338.214 1116.7 337.029 1083.56 355.437C1066.95 365.645 1057.29 381.778 1052.62 400.437C1046.18 427.744 1048.53 460.803 1062.44 485.562C1063.59 487.394 1064.78 489.209 1066 491C1066.54 491.808 1067.09 492.616 1067.65 493.449C1080.07 510.619 1100.5 518.342 1120.6 522.113C1127.65 523.235 1134.62 523.344 1141.75 523.312C1142.76 523.309 1142.76 523.309 1143.79 523.306C1167.94 523.183 1192.86 520.155 1214.99 509.883C1217 509 1217 509 1219 509C1219 523.85 1219 538.7 1219 554C1193.3 562.566 1193.3 562.566 1184 564C1183.17 564.134 1182.34 564.268 1181.49 564.406C1136.16 571.457 1083.47 569.64 1044.71 542.421C1034.47 534.885 1025.69 525.828 1019 515C1018.15 513.704 1018.15 513.704 1017.27 512.383C1009.12 499.42 1004.16 483.926 1001 469C1000.85 468.315 1000.7 467.63 1000.55 466.924C997.916 454.236 997.71 441.53 997.687 428.625C997.684 427.816 997.68 427.007 997.676 426.174C997.598 393.208 1005.42 359.825 1028.71 335.293C1029.47 334.536 1030.22 333.78 1031 333C1032.1 331.88 1032.1 331.88 1033.23 330.738C1075.78 289.965 1158.11 288.885 1210.93 307.949Z" fill="#07080A"/>
<path d="M359 369C361.039 372.059 361.255 372.723 361.303 376.177C361.32 377.015 361.336 377.853 361.353 378.716C361.362 379.619 361.37 380.523 361.379 381.453C361.396 382.387 361.413 383.32 361.43 384.282C361.484 387.271 361.524 390.261 361.562 393.25C361.607 396.225 361.653 399.2 361.705 402.175C361.737 404.026 361.764 405.877 361.786 407.728C361.862 412.575 362.241 417.201 363 422C363.109 423.53 363.195 425.061 363.246 426.594C363.279 427.397 363.312 428.2 363.346 429.027C363.407 430.676 363.464 432.324 363.518 433.973C363.73 438.968 364.578 443.181 366 448C366.522 452.998 366.733 457.979 367 463C374.425 466.465 374.425 466.465 382 470C382 470.66 382 471.32 382 472C382.534 472.147 383.067 472.294 383.617 472.445C389.24 474.138 393.891 476.54 398.836 479.695C401.052 481.139 401.052 481.139 404 482C405.333 483.333 406.667 484.667 408 486C408.908 486.536 409.815 487.072 410.75 487.625C411.493 488.079 412.235 488.532 413 489C413 489.66 413 490.32 413 491C402.442 489.073 402.442 489.073 398 487C398 486.34 398 485.68 398 485C396.453 484.722 396.453 484.722 394.875 484.438C388.149 482.798 382.09 479.199 376 476C376 475.01 376 474.02 376 473C374.639 472.814 374.639 472.814 373.25 472.625C370 472 370 472 368.25 471C365.098 469.599 362.181 469.566 358.75 469.375C357.487 469.3 356.223 469.225 354.922 469.148C353.476 469.075 353.476 469.075 352 469C352.33 468.01 352.66 467.02 353 466C356.465 465.505 356.465 465.505 360 465C359.97 464.224 359.939 463.447 359.908 462.647C359.091 440.681 358.91 418.729 358.938 396.75C358.938 396.063 358.939 395.377 358.94 394.669C358.952 386.113 358.972 377.556 359 369Z" fill="#9A2729"/>
<path d="M363 247C363.33 247 363.66 247 364 247C364.227 257.742 364.02 268.382 363.284 279.104C360.295 322.976 360.649 368.056 363.812 411.902C364.361 421.575 364.075 431.316 364 441C363.67 441 363.34 441 363 441C362.939 439.71 362.879 438.419 362.816 437.09C362.732 435.372 362.647 433.655 362.562 431.938C362.523 431.09 362.484 430.242 362.443 429.369C362.401 428.534 362.359 427.7 362.316 426.84C362.28 426.081 362.243 425.321 362.205 424.539C362.023 421.886 362.023 421.886 361.5 418.828C360.892 414.176 360.77 409.596 360.683 404.91C360.665 404.072 360.646 403.234 360.627 402.37C360.559 399.268 360.499 396.165 360.437 393.062C360.293 386.112 360.149 379.161 360 372C359.67 390.81 359.34 409.62 359 429C358.67 429 358.34 429 358 429C357.075 417.695 356.852 406.475 356.867 395.137C356.866 393.334 356.865 391.531 356.864 389.728C356.863 385.959 356.865 382.19 356.869 378.42C356.875 373.7 356.872 368.98 356.866 364.259C356.847 346.274 356.913 328.296 357.414 310.316C357.448 309.003 357.483 307.691 357.519 306.338C357.894 294.484 359 282.739 360.281 270.953C360.936 264.928 361.376 258.904 361.736 252.854C362 250 362 250 363 247Z" fill="#86312E"/>
<path d="M236 493C237.339 493.655 238.673 494.32 240 495C239.106 495.231 238.212 495.461 237.292 495.699C205.696 503.884 174.486 513.178 143.762 524.227C142.831 524.56 141.9 524.894 140.941 525.238C139.24 525.852 137.542 526.475 135.848 527.108C130.328 529.109 130.328 529.109 127 528C130.455 526.617 133.915 525.245 137.375 523.875C138.321 523.496 139.267 523.117 140.242 522.727C147.836 519.729 155.524 517.119 163.275 514.566C167.941 513.027 172.585 511.429 177.227 509.816C194.1 503.968 210.934 498.249 228.173 493.55C233.109 492.065 233.109 492.065 236 493Z" fill="#853E27"/>
<path d="M416 491C417.32 491 418.64 491 420 491C420 491.66 420 492.32 420 493C420.977 493.075 421.954 493.15 422.961 493.227C427.71 493.908 431.48 496.061 435.625 498.375C436.362 498.775 437.1 499.174 437.859 499.586C439.916 500.707 441.96 501.848 444 503C444.977 503.549 445.954 504.098 446.961 504.664C449 506 449 506 450 508C449.505 509.485 449.505 509.485 449 511C449.99 511 450.98 511 452 511C452 511.66 452 512.32 452 513C453.32 513.33 454.64 513.66 456 514C455.01 514.495 455.01 514.495 454 515C451.268 513.781 448.647 512.509 446 511.125C445.263 510.747 444.525 510.37 443.766 509.98C442.397 509.278 441.029 508.573 439.664 507.864C438.448 507.232 437.226 506.613 436 506C436 505.34 436 504.68 436 504C434.855 503.783 434.855 503.783 433.688 503.562C431 503 431 503 428 502C428 501.34 428 500.68 428 500C427.428 499.714 426.855 499.428 426.266 499.133C422.844 497.422 419.422 495.711 416 494C416 493.01 416 492.02 416 491Z" fill="#932C2F"/>
<path d="M356 466C355.01 466.33 354.02 466.66 353 467C352.34 467.99 351.68 468.98 351 470C348.023 470.625 348.023 470.625 344.375 471C338.487 471.695 338.487 471.695 332.938 473.625C327.603 475.948 321.695 475.234 316 475C316.33 474.34 316.66 473.68 317 473C317.99 473 318.98 473 320 473C320 472.34 320 471.68 320 471C327.86 468.038 335.732 467.223 344.023 466.43C347.716 466.13 347.716 466.13 350.108 465.446C352.38 464.91 353.803 465.294 356 466Z" fill="#A12228"/>
<path d="M362 304C362.33 304 362.66 304 363 304C363 335.68 363 367.36 363 400C362.67 400 362.34 400 362 400C361.002 378.921 360.887 357.841 360.877 336.743C360.875 334.556 360.872 332.368 360.868 330.181C360.861 326.039 360.863 321.896 360.867 317.754C360.865 316.482 360.863 315.211 360.861 313.901C360.864 312.742 360.868 311.583 360.871 310.389C360.872 309.368 360.872 308.348 360.873 307.297C361 305 361 305 362 304Z" fill="#655945"/>
<path d="M379 610C379.66 610 380.32 610 381 610C381.124 610.615 381.248 611.23 381.376 611.863C384.663 627.796 389.077 642.997 394.48 658.318C394.839 659.352 394.839 659.352 395.206 660.406C395.862 662.288 396.53 664.166 397.199 666.043C398 669 398 669 397 672C394.5 670.75 394.5 670.75 392 669C392 664.667 392 660.333 392 656C391.01 655.67 390.02 655.34 389 655C389.021 654.092 389.041 653.185 389.062 652.25C389.011 648.518 389.011 648.518 388 645C387.01 644.67 386.02 644.34 385 644C385 643.01 385 642.02 385 641C384.685 638.267 384.353 635.54 384 632.812C383.905 632.063 383.809 631.313 383.711 630.541C383.476 628.694 383.238 626.847 383 625C382.01 625.33 381.02 625.66 380 626C379.67 620.72 379.34 615.44 379 610Z" fill="#945D4E"/>
<path d="M474 521C478.125 522.456 481.373 524.582 485 527C486.646 527.716 488.307 528.403 490 529C490 529.66 490 530.32 490 531C490.674 531.237 491.348 531.474 492.043 531.719C495.716 533.31 498.955 535.335 502.312 537.5C502.958 537.903 503.603 538.307 504.268 538.723C505.883 539.758 507.447 540.873 509 542C509 542.66 509 543.32 509 544C504.25 543.125 504.25 543.125 502 542C502 541.34 502 540.68 502 540C500.906 539.836 500.906 539.836 499.789 539.668C496.832 538.96 494.929 537.94 492.375 536.312C487.824 533.478 483.183 530.902 478.445 528.395C476.139 527.079 474.083 525.642 472 524C472.66 524 473.32 524 474 524C474 523.01 474 522.02 474 521Z" fill="#8D3132"/>
<path d="M509 542C510.542 542.979 512.084 543.958 513.625 544.938C514.621 545.57 515.618 546.203 516.645 546.855C518.982 548.349 521.312 549.85 523.637 551.363C524.553 551.958 524.553 551.958 525.488 552.565C526.677 553.337 527.865 554.112 529.051 554.89C531.704 556.61 534.314 558.15 537.168 559.516C540.083 561.044 541.726 562.655 544 565C545.973 566.373 547.975 567.704 550 569C553.751 571.401 556.965 573.731 560 577C556.53 575.709 553.538 574.205 550.438 572.188C549.49 571.575 548.543 570.963 547.566 570.332C545.604 569.051 543.643 567.766 541.683 566.482C539.964 565.356 538.244 564.231 536.524 563.107C534.796 561.977 533.069 560.844 531.345 559.708C526.64 556.629 521.885 553.757 516.946 551.067C514.726 549.85 512.574 548.547 510.438 547.188C509.776 546.769 509.115 546.35 508.434 545.918C507.961 545.615 507.487 545.312 507 545C507.66 544.67 508.32 544.34 509 544C509 543.34 509 542.68 509 542Z" fill="#7E3B37"/>
<path d="M375 658C375.33 658.66 375.66 659.32 376 660C376.66 660.33 377.32 660.66 378 661C378.65 664.612 379.026 668.229 379.438 671.875C379.623 672.906 379.809 673.938 380 675C380.66 675.33 381.32 675.66 382 676C382.389 677.99 382.719 679.992 383 682C383.33 682.99 383.66 683.98 384 685C384 685.99 384 686.98 384 688C384.99 688.33 385.98 688.66 387 689C387.124 690.609 387.124 690.609 387.25 692.25C388.055 696.274 388.877 697.482 392 700C391.34 700 390.68 700 390 700C390.289 700.681 390.577 701.361 390.875 702.062C392 705 392 705 392.938 708.5C393.927 711.761 395.12 714.181 397 717C396.34 717.99 395.68 718.98 395 720C388.208 704.296 382.184 688.691 377.625 672.188C377.362 671.238 377.099 670.288 376.828 669.309C376.588 668.417 376.348 667.525 376.102 666.605C375.888 665.813 375.675 665.02 375.456 664.204C375 662 375 662 375 658Z" fill="#984840"/>
<path d="M264 484C264 484.66 264 485.32 264 486C266.97 486.495 266.97 486.495 270 487C265.36 489.514 260.487 490.457 255.375 491.625C253.954 491.969 253.954 491.969 252.504 492.32C246.237 493.761 240.424 494.3 234 494C234.66 493.67 235.32 493.34 236 493C236 492.34 236 491.68 236 491C237.075 490.735 237.075 490.735 238.171 490.465C241.407 489.667 244.641 488.865 247.875 488.062C249.003 487.785 250.131 487.507 251.293 487.221C252.908 486.819 252.908 486.819 254.555 486.41C255.55 486.164 256.545 485.918 257.57 485.664C263.658 484 263.658 484 264 484Z" fill="#972C29"/>
<path d="M329 435C330.545 435.956 330.545 435.956 332.191 437.477C332.804 438.034 333.416 438.591 334.047 439.165C335.014 440.073 335.014 440.073 336 441C336.651 441.598 337.302 442.196 337.972 442.812C339.972 444.655 341.956 446.512 343.938 448.375C344.621 449.016 345.305 449.656 346.01 450.316C347.674 451.876 349.338 453.438 351 455C346.994 455 344.714 453.092 341.5 450.938C340.248 450.114 338.995 449.291 337.742 448.469C337.117 448.055 336.491 447.641 335.847 447.215C333.126 445.425 330.376 443.681 327.625 441.938C326.73 441.369 325.836 440.801 324.914 440.215C324.282 439.814 323.651 439.413 323 439C325.052 436.752 326.007 435.998 329 435Z" fill="#EDF6E8"/>
<path d="M449 508C450.65 508 452.3 508 454 508C454 508.66 454 509.32 454 510C455.257 510.367 455.257 510.367 456.539 510.742C460.444 512.161 463.81 514.019 467.375 516.125C468.016 516.498 468.656 516.87 469.316 517.254C470.88 518.164 472.441 519.081 474 520C474 521.32 474 522.64 474 524C469.548 523.389 466.18 521.701 462.25 519.562C460.525 518.636 460.525 518.636 458.766 517.691C456 516 456 516 455 514C454.01 513.67 453.02 513.34 452 513C452 512.34 452 511.68 452 511C451.01 511 450.02 511 449 511C449 510.01 449 509.02 449 508Z" fill="#95292E"/>
<path d="M399 675C402.103 676.551 402.306 679.043 403.5 682.25C406.083 688.978 409.021 695.497 412.125 702C412.545 702.883 412.964 703.767 413.396 704.677C415.256 708.547 417.153 712.32 419.367 716C419.906 716.99 420.445 717.98 421 719C420.67 719.66 420.34 720.32 420 721C416.845 718.344 415.311 714.958 413.563 711.312C413.256 710.688 412.95 710.064 412.634 709.421C411.316 706.734 410.018 704.037 408.727 701.336C407.108 697.501 407.108 697.501 404 695C404 693.02 404 691.04 404 689C403.01 689 402.02 689 401 689C400.772 686.949 400.544 684.898 400.316 682.848C400.181 680.989 400.181 680.989 399 680C398.959 678.334 398.957 676.666 399 675Z" fill="#994540"/>
<path d="M294 477C294 477.66 294 478.32 294 479C289.127 480.591 285.192 481.212 280 481C280 481.66 280 482.32 280 483C282.64 483 285.28 483 288 483C288 483.33 288 483.66 288 484C279.547 486.073 271.717 487.48 263 487C263.33 486.01 263.66 485.02 264 484C266.869 482.994 269.624 482.175 272.562 481.438C273.349 481.229 274.136 481.021 274.947 480.807C276.524 480.392 278.103 479.985 279.684 479.585C281.203 479.201 282.72 478.808 284.234 478.403C287.644 477.504 290.444 477 294 477Z" fill="#9B2627"/>
<path d="M363 400C363.33 400 363.66 400 364 400C365.214 410.664 365.095 421.283 365 432C365.66 432 366.32 432 367 432C367.025 432.609 367.05 433.218 367.076 433.845C367.673 449.447 367.673 449.447 369 465C368.01 464.34 367.02 463.68 366 463C365.453 459.95 365.106 457.078 364.875 454C364.797 453.078 364.719 452.156 364.639 451.206C363.289 434.184 362.768 417.073 363 400Z" fill="#6B5343"/>
<path d="M364 232C364.66 232 365.32 232 366 232C366.028 234.042 366.047 236.083 366.063 238.125C366.074 239.262 366.086 240.399 366.098 241.57C366.006 244.813 365.614 247.819 365 251C364.34 250.67 363.68 250.34 363 250C362.01 262.54 361.02 275.08 360 288C359.67 288 359.34 288 359 288C358.971 284.063 358.953 280.125 358.938 276.188C358.929 275.068 358.921 273.948 358.912 272.795C358.909 271.722 358.906 270.649 358.903 269.543C358.897 268.553 358.892 267.563 358.887 266.544C359 264 359 264 360 261C360.205 258.184 360.372 255.381 360.5 252.562C360.569 251.043 360.642 249.523 360.719 248.004C360.749 247.332 360.78 246.66 360.811 245.967C361.01 243.9 361.449 242 362 240C362.66 240 363.32 240 364 240C364 237.36 364 234.72 364 232Z" fill="#665342"/>
<path d="M366 208C366.66 208 367.32 208 368 208C368.131 217.8 367.956 227.58 367.625 237.375C367.594 238.487 367.563 239.598 367.531 240.744C367.493 241.785 367.454 242.826 367.414 243.898C367.383 244.833 367.351 245.769 367.319 246.732C367 249 367 249 365 251C365.33 244.73 365.66 238.46 366 232C365.34 232 364.68 232 364 232C364 234.64 364 237.28 364 240C363.67 240 363.34 240 363 240C362.782 232.649 363.423 225.642 364.5 218.375C364.643 217.371 364.786 216.367 364.933 215.332C365.283 212.887 365.638 210.443 366 208Z" fill="#595C46"/>
<path d="M320 471C320 471.66 320 472.32 320 473C319.01 473.33 318.02 473.66 317 474C322.445 474.495 322.445 474.495 328 475C328 475.33 328 475.66 328 476C327.265 476.141 326.53 476.282 325.772 476.427C322.39 477.076 319.007 477.726 315.625 478.375C314.469 478.597 313.312 478.818 312.121 479.047C310.41 479.376 310.41 479.376 308.664 479.711C307.536 479.926 306.409 480.141 305.247 480.362C303.18 480.768 301.116 481.194 299.058 481.646C298.18 481.837 297.303 482.029 296.398 482.227C295.64 482.4 294.881 482.574 294.099 482.752C291.798 483.024 290.194 482.697 288 482C288.638 481.867 289.276 481.734 289.934 481.598C290.76 481.421 291.586 481.244 292.438 481.062C293.261 480.888 294.085 480.714 294.934 480.535C296.977 480.192 296.977 480.192 298 479C300.347 478.603 302.703 478.256 305.062 477.938C306.353 477.761 307.643 477.584 308.973 477.402C309.972 477.27 310.971 477.137 312 477C312 476.34 312 475.68 312 475C309.36 475 306.72 475 304 475C308.948 472.114 314.332 471 320 471Z" fill="#9B2729"/>
<path d="M305.812 474.875C307.555 474.902 307.555 474.902 309.332 474.93C310.212 474.953 311.093 474.976 312 475C312 475.66 312 476.32 312 477C311.001 477.205 310.002 477.41 308.973 477.621C307.682 477.891 306.392 478.16 305.062 478.437C303.775 478.704 302.487 478.971 301.16 479.246C298.154 479.672 298.154 479.672 297 481C291.288 482.712 285.936 483.216 280 483C280 482.34 280 481.68 280 481C281.134 480.856 282.269 480.711 283.438 480.562C286.808 480.388 286.808 480.388 288 479C290 478.959 292 478.957 294 479C294 478.34 294 477.68 294 477C298.077 475.05 301.317 474.784 305.812 474.875Z" fill="#A02426"/>
<path d="M358 429C358.66 429 359.32 429 360 429C360 440.88 360 452.76 360 465C346.5 467.25 346.5 467.25 340 467C343.126 465.245 345.975 464.485 349.5 463.875C350.908 463.624 350.908 463.624 352.344 463.367C355 463 355 463 359 463C358.928 462.138 358.856 461.275 358.781 460.387C357.985 449.91 357.898 439.504 358 429Z" fill="#89302E"/>
<path d="M397 445C397.66 445.33 398.32 445.66 399 446C398.01 446.784 397.02 447.567 396 448.375C395.01 449.241 394.02 450.108 393 451C393 451.66 393 452.32 393 453C393.66 453.66 394.32 454.32 395 455C391.734 456.202 388.462 457.384 385.188 458.562C384.259 458.905 383.33 459.247 382.373 459.6C381.48 459.919 380.588 460.238 379.668 460.566C378.435 461.014 378.435 461.014 377.177 461.471C375 462 375 462 372 461C372.967 460.432 373.934 459.863 374.93 459.277C382.502 454.796 389.891 450.202 397 445Z" fill="#ECF5EC"/>
<path d="M364 251C364.33 251 364.66 251 365 251C365.025 255.323 365.043 259.647 365.055 263.97C365.06 265.439 365.067 266.909 365.075 268.378C365.088 270.496 365.093 272.613 365.098 274.73C365.103 276.003 365.108 277.276 365.114 278.587C365.015 281.554 364.642 284.117 364 287C363.865 288.4 363.759 289.803 363.684 291.207C363.621 292.333 363.621 292.333 363.557 293.482C363.517 294.251 363.478 295.02 363.438 295.812C363.394 296.601 363.351 297.389 363.307 298.201C363.201 300.134 363.1 302.067 363 304C362.67 304 362.34 304 362 304C361.676 286.229 362.575 268.706 364 251Z" fill="#655945"/>
<path d="M418 720C419.797 720.188 419.797 720.188 422 721C423.703 723.25 423.703 723.25 425.25 726C425.771 726.908 426.292 727.815 426.828 728.75C428 731 428 731 428 732C422.615 732.917 417.458 733.111 412 733C415.75 730 415.75 730 418 730C418 729.34 418 728.68 418 728C418.66 728.33 419.32 728.66 420 729C420.99 729 421.98 729 423 729C423.33 728.34 423.66 727.68 424 727C421.69 726.34 419.38 725.68 417 725C417.33 723.35 417.66 721.7 418 720Z" fill="#9D3035"/>
<path d="M376 473C376 473.99 376 474.98 376 476C372.933 475.073 370.401 474.298 367.812 472.375C359.447 468.285 348.912 471.806 340.262 473.664C338.943 473.941 338.943 473.941 337.598 474.223C336.809 474.395 336.02 474.568 335.207 474.746C332.853 475.017 331.241 474.718 329 474C343.102 467.795 362.081 465.664 376 473Z" fill="#8C352B"/>
<path d="M369 628C370.5 629.125 370.5 629.125 372 631C372.188 634.188 372.188 634.188 372 637C372.99 637.33 373.98 637.66 375 638C374.67 638.99 374.34 639.98 374 641C374.389 643.143 374.389 643.143 375 645C374.34 645 373.68 645 373 645C373.24 645.615 373.48 646.23 373.727 646.863C374.023 647.672 374.32 648.48 374.625 649.312C374.927 650.113 375.228 650.914 375.539 651.738C375.691 652.485 375.843 653.231 376 654C375.34 654.99 374.68 655.98 374 657C373.263 653.822 372.529 650.644 371.801 647.465C371.331 645.433 370.853 643.404 370.356 641.379C369.25 636.788 368.799 632.724 369 628Z" fill="#915947"/>
<path d="M404 483C407.834 484.438 411.416 486.198 415.035 488.098C417.009 489.004 418.881 489.542 421 490C421 490.66 421 491.32 421 492C421.66 492.33 422.32 492.66 423 493C422.01 493 421.02 493 420 493C420 492.34 420 491.68 420 491C418.68 491 417.36 491 416 491C416.661 494.062 416.661 494.062 418.812 495.098C419.534 495.416 420.256 495.734 421 496.062C424.898 497.796 424.898 497.796 426 500C421.54 498.667 417.804 496.888 413.812 494.5C412.788 493.892 411.763 493.283 410.707 492.656C408.78 491.477 406.88 490.253 405 489C407.763 489.523 410.326 490.109 413 491C411.066 488.099 410.288 487.377 407.375 485.812C406.261 485.214 405.148 484.616 404 484C404 483.67 404 483.34 404 483Z" fill="#8F3031"/>
<path d="M396 718C396.33 718.99 396.66 719.98 397 721C397.99 721.33 398.98 721.66 400 722C401.688 725.562 401.688 725.562 403 729C403.99 729 404.98 729 406 729C408.062 729.938 408.062 729.938 410 731C410.66 731.33 411.32 731.66 412 732C412 732.66 412 733.32 412 734C409.03 734.33 406.06 734.66 403 735C401.823 732.922 400.658 730.838 399.5 728.75C399.166 728.163 398.832 727.577 398.488 726.973C396.639 723.614 396 721.934 396 718Z" fill="#9C3135"/>
<path d="M733.656 638L731.76 633.176H724.248L722.352 638H720.024L726.768 621.488H729.312L735.936 638H733.656ZM728.016 623.168L727.896 623.504C727.704 624.16 727.416 624.992 727.032 626L724.92 631.424H731.088L728.976 625.976C728.752 625.432 728.536 624.824 728.328 624.152L728.016 623.168ZM766.992 638V626.984C766.992 625.768 767.024 624.6 767.088 623.48C766.704 624.872 766.36 625.96 766.056 626.744L761.808 638H760.224L755.904 626.744L755.256 624.752L754.872 623.48L754.896 624.776L754.944 626.984V638H752.952V621.488H755.904L760.296 632.936C760.44 633.4 760.584 633.896 760.728 634.424C760.872 634.952 760.968 635.328 761.016 635.552C761.08 635.248 761.208 634.776 761.4 634.136C761.608 633.496 761.752 633.096 761.832 632.936L766.128 621.488H769.008V638H766.992ZM803.497 629.672C803.497 631.4 803.161 632.912 802.489 634.208C801.833 635.504 800.889 636.504 799.657 637.208C798.425 637.896 796.969 638.24 795.289 638.24C793.593 638.24 792.129 637.896 790.897 637.208C789.665 636.52 788.721 635.528 788.065 634.232C787.425 632.92 787.105 631.4 787.105 629.672C787.105 627.032 787.825 624.968 789.265 623.48C790.721 621.992 792.737 621.248 795.313 621.248C796.993 621.248 798.449 621.584 799.681 622.256C800.913 622.912 801.857 623.88 802.513 625.16C803.169 626.424 803.497 627.928 803.497 629.672ZM801.193 629.672C801.193 627.608 800.681 625.992 799.657 624.824C798.633 623.656 797.185 623.072 795.313 623.072C793.425 623.072 791.961 623.648 790.921 624.8C789.897 625.952 789.385 627.576 789.385 629.672C789.385 631.736 789.905 633.376 790.945 634.592C791.985 635.808 793.433 636.416 795.289 636.416C797.193 636.416 798.649 635.832 799.657 634.664C800.681 633.48 801.193 631.816 801.193 629.672ZM834.537 633.44C834.537 634.96 833.937 636.144 832.737 636.992C831.553 637.824 829.881 638.24 827.721 638.24C823.689 638.24 821.353 636.84 820.713 634.04L822.873 633.608C823.129 634.6 823.665 635.328 824.481 635.792C825.297 636.256 826.401 636.488 827.793 636.488C829.233 636.488 830.345 636.24 831.129 635.744C831.913 635.248 832.305 634.52 832.305 633.56C832.305 633.016 832.185 632.576 831.945 632.24C831.705 631.904 831.361 631.632 830.913 631.424C830.465 631.2 829.929 631.016 829.305 630.872C828.697 630.712 828.017 630.552 827.265 630.392C825.953 630.104 824.961 629.816 824.289 629.528C823.617 629.224 823.081 628.896 822.681 628.544C822.297 628.192 822.001 627.776 821.793 627.296C821.585 626.816 821.481 626.272 821.481 625.664C821.481 624.24 822.017 623.152 823.089 622.4C824.177 621.632 825.729 621.248 827.745 621.248C829.633 621.248 831.073 621.536 832.065 622.112C833.057 622.688 833.753 623.664 834.153 625.04L831.945 625.424C831.705 624.544 831.241 623.912 830.553 623.528C829.881 623.128 828.937 622.928 827.721 622.928C826.409 622.928 825.401 623.152 824.697 623.6C824.009 624.032 823.665 624.68 823.665 625.544C823.665 626.056 823.801 626.48 824.073 626.816C824.345 627.136 824.729 627.416 825.225 627.656C825.737 627.88 826.753 628.16 828.273 628.496C828.785 628.608 829.289 628.728 829.785 628.856C830.297 628.968 830.777 629.112 831.225 629.288C831.689 629.448 832.121 629.648 832.521 629.888C832.937 630.112 833.289 630.392 833.577 630.728C833.881 631.048 834.113 631.432 834.273 631.88C834.449 632.312 834.537 632.832 834.537 633.44ZM882.522 623.072C880.698 623.072 879.274 623.664 878.25 624.848C877.242 626.016 876.738 627.624 876.738 629.672C876.738 631.688 877.266 633.312 878.322 634.544C879.378 635.776 880.81 636.392 882.618 636.392C884.922 636.392 886.658 635.248 887.826 632.96L889.65 633.872C888.978 635.296 888.026 636.384 886.794 637.136C885.562 637.872 884.13 638.24 882.498 638.24C880.834 638.24 879.394 637.896 878.178 637.208C876.978 636.504 876.058 635.512 875.418 634.232C874.778 632.952 874.458 631.432 874.458 629.672C874.458 627.032 875.17 624.968 876.594 623.48C878.018 621.992 879.986 621.248 882.498 621.248C884.258 621.248 885.722 621.592 886.89 622.28C888.074 622.968 888.946 623.984 889.506 625.328L887.394 626.024C887.01 625.064 886.394 624.336 885.546 623.84C884.698 623.328 883.69 623.072 882.522 623.072ZM907.546 638V621.488H920.074V623.312H909.778V628.616H919.378V630.416H909.778V636.176H920.554V638H907.546ZM949.234 638L940.403 623.936L940.475 625.064L940.523 627.032V638H938.531V621.488H941.123L950.051 635.648C949.971 634.112 949.931 633 949.931 632.312V621.488H951.947V638H949.234ZM977.307 623.312V638H975.075V623.312H969.411V621.488H982.971V623.312H977.307ZM1000.5 638V621.488H1013.03V623.312H1002.73V628.616H1012.33V630.416H1002.73V636.176H1013.51V638H1000.5ZM1043.15 638L1038.88 631.136H1033.72V638H1031.48V621.488H1039.26C1041.12 621.488 1042.55 621.904 1043.56 622.736C1044.56 623.568 1045.07 624.728 1045.07 626.216C1045.07 627.432 1044.71 628.464 1043.99 629.312C1043.28 630.144 1042.3 630.672 1041.04 630.896L1045.74 638H1043.15ZM1042.84 626.24C1042.84 625.28 1042.51 624.552 1041.85 624.056C1041.2 623.544 1040.25 623.288 1039.02 623.288H1033.72V629.384H1039.12C1040.3 629.384 1041.21 629.112 1041.85 628.568C1042.51 628.008 1042.84 627.232 1042.84 626.24ZM1102 629.672C1102 631.4 1101.66 632.912 1100.99 634.208C1100.33 635.504 1099.39 636.504 1098.16 637.208C1096.92 637.896 1095.47 638.24 1093.79 638.24C1092.09 638.24 1090.63 637.896 1089.4 637.208C1088.16 636.52 1087.22 635.528 1086.56 634.232C1085.92 632.92 1085.6 631.4 1085.6 629.672C1085.6 627.032 1086.32 624.968 1087.76 623.48C1089.22 621.992 1091.24 621.248 1093.81 621.248C1095.49 621.248 1096.95 621.584 1098.18 622.256C1099.41 622.912 1100.36 623.88 1101.01 625.16C1101.67 626.424 1102 627.928 1102 629.672ZM1099.69 629.672C1099.69 627.608 1099.18 625.992 1098.16 624.824C1097.13 623.656 1095.68 623.072 1093.81 623.072C1091.92 623.072 1090.46 623.648 1089.42 624.8C1088.4 625.952 1087.88 627.576 1087.88 629.672C1087.88 631.736 1088.4 633.376 1089.44 634.592C1090.48 635.808 1091.93 636.416 1093.79 636.416C1095.69 636.416 1097.15 635.832 1098.16 634.664C1099.18 633.48 1099.69 631.816 1099.69 629.672ZM1122.33 623.312V629.456H1131.55V631.304H1122.33V638H1120.1V621.488H1131.84V623.312H1122.33ZM1172.39 638V621.488H1184.92V623.312H1174.62V628.616H1184.22V630.416H1174.62V636.176H1185.4V638H1172.39ZM1214.44 638L1209.47 630.776L1204.41 638H1201.93L1208.22 629.432L1202.41 621.488H1204.89L1209.47 627.968L1213.93 621.488H1216.43L1210.77 629.336L1216.91 638H1214.44ZM1241.65 623.072C1239.83 623.072 1238.41 623.664 1237.38 624.848C1236.37 626.016 1235.87 627.624 1235.87 629.672C1235.87 631.688 1236.4 633.312 1237.45 634.544C1238.51 635.776 1239.94 636.392 1241.75 636.392C1244.05 636.392 1245.79 635.248 1246.96 632.96L1248.78 633.872C1248.11 635.296 1247.16 636.384 1245.93 637.136C1244.69 637.872 1243.26 638.24 1241.63 638.24C1239.97 638.24 1238.53 637.896 1237.31 637.208C1236.11 636.504 1235.19 635.512 1234.55 634.232C1233.91 632.952 1233.59 631.432 1233.59 629.672C1233.59 627.032 1234.3 624.968 1235.73 623.48C1237.15 621.992 1239.12 621.248 1241.63 621.248C1243.39 621.248 1244.85 621.592 1246.02 622.28C1247.21 622.968 1248.08 623.984 1248.64 625.328L1246.53 626.024C1246.14 625.064 1245.53 624.336 1244.68 623.84C1243.83 623.328 1242.82 623.072 1241.65 623.072ZM1266.68 638V621.488H1279.21V623.312H1268.91V628.616H1278.51V630.416H1268.91V636.176H1279.69V638H1266.68ZM1297.66 638V621.488H1299.9V636.176H1308.25V638H1297.66ZM1326 638V621.488H1328.23V636.176H1336.58V638H1326ZM1354.34 638V621.488H1366.86V623.312H1356.57V628.616H1366.17V630.416H1356.57V636.176H1367.34V638H1354.34ZM1396.02 638L1387.19 623.936L1387.26 625.064L1387.31 627.032V638H1385.32V621.488H1387.91L1396.84 635.648C1396.76 634.112 1396.72 633 1396.72 632.312V621.488H1398.74V638H1396.02ZM1424.94 623.072C1423.11 623.072 1421.69 623.664 1420.66 624.848C1419.66 626.016 1419.15 627.624 1419.15 629.672C1419.15 631.688 1419.68 633.312 1420.74 634.544C1421.79 635.776 1423.22 636.392 1425.03 636.392C1427.34 636.392 1429.07 635.248 1430.24 632.96L1432.06 633.872C1431.39 635.296 1430.44 636.384 1429.21 637.136C1427.98 637.872 1426.54 638.24 1424.91 638.24C1423.25 638.24 1421.81 637.896 1420.59 637.208C1419.39 636.504 1418.47 635.512 1417.83 634.232C1417.19 632.952 1416.87 631.432 1416.87 629.672C1416.87 627.032 1417.58 624.968 1419.01 623.48C1420.43 621.992 1422.4 621.248 1424.91 621.248C1426.67 621.248 1428.14 621.592 1429.3 622.28C1430.49 622.968 1431.36 623.984 1431.92 625.328L1429.81 626.024C1429.42 625.064 1428.81 624.336 1427.96 623.84C1427.11 623.328 1426.1 623.072 1424.94 623.072ZM1449.96 638V621.488H1462.49V623.312H1452.19V628.616H1461.79V630.416H1452.19V636.176H1462.97V638H1449.96Z" fill="black"/>
</svg>
