<svg width="64" height="50" viewBox="0 0 64 50" fill="none" xmlns="http://www.w3.org/2000/svg">
<circle cx="4" cy="4" r="4" fill="#898989"/>
<circle cx="18" cy="4" r="4" fill="#898989"/>
<circle cx="32" cy="4" r="4" fill="#898989"/>
<circle cx="46" cy="4" r="4" fill="#898989"/>
<circle cx="60" cy="4" r="4" fill="#898989"/>
<circle cx="4" cy="18" r="4" fill="#898989"/>
<circle cx="18" cy="18" r="4" fill="#898989"/>
<circle cx="32" cy="18" r="4" fill="#898989"/>
<circle cx="46" cy="18" r="4" fill="#898989"/>
<circle cx="60" cy="18" r="4" fill="#898989"/>
<circle cx="4" cy="32" r="4" fill="#898989"/>
<circle cx="18" cy="32" r="4" fill="#898989"/>
<circle cx="32" cy="32" r="4" fill="#898989"/>
<circle cx="46" cy="32" r="4" fill="#898989"/>
<circle cx="60" cy="32" r="4" fill="#898989"/>
<circle cx="4" cy="46" r="4" fill="#898989"/>
<circle cx="18" cy="46" r="4" fill="#898989"/>
<circle cx="32" cy="46" r="4" fill="#898989"/>
<circle cx="46" cy="46" r="4" fill="#898989"/>
<circle cx="60" cy="46" r="4" fill="#898989"/>
</svg>
